PathFileType	4	(X/Y/Z)	/Users/niels/Desktop/University/Third Semester/Perception and Action/Exam/Gymnastics Motion Tracking/Code for Gym Tracking/Analyzed Data/Webcam_Backflip/id1_6_trajectory_Sports2D/id1_6_trajectory_Sports2D_px_person00.trc
DataRate	CameraRate	NumFrames	NumMarkers	Units	OrigDataRate	OrigDataStartFrame	OrigNumFrames
29.714285714285715	29.714285714285715	11	22	m	29.714285714285715	13	105
Frame#	Time	Hip			RHip			RKnee			RAnkle			RBigToe			RSmallToe			RHeel			LHip			LKnee			LAnkle			LBigToe			LSmallToe			LHeel			Neck			Head			Nose			RShoulder			RElbow			RWrist			LShoulder			LElbow			LWrist		
		X1	Y1	Z1	X2	Y2	Z2	X3	Y3	Z3	X4	Y4	Z4	X5	Y5	Z5	X6	Y6	Z6	X7	Y7	Z7	X8	Y8	Z8	X9	Y9	Z9	X10	Y10	Z10	X11	Y11	Z11	X12	Y12	Z12	X13	Y13	Z13	X14	Y14	Z14	X15	Y15	Z15	X16	Y16	Z16	X17	Y17	Z17	X18	Y18	Z18	X19	Y19	Z19	X20	Y20	Z20	X21	Y21	Z21	X22	Y22	Z22
13	0.4375	1.0687325869407016	-0.5493099789118708	0.0	1.0574947830928847	-0.5461566933845405	0.0	1.0789174486693842	-0.6744738127938712	0.0	1.045558221777371	-0.7956360142867949	0.0	1.0518516230954331	-0.8391780810961369	0.0	1.0467549238476537	-0.8382569915534972	0.0	1.0344650235921198	-0.8083119369990982	0.0	1.072245896763927	-0.5465064379197841	0.0	1.1131066426596319	-0.6720051687896992	0.0	1.0641256349909056	-0.7932472175229559	0.0	1.0709631040991119	-0.8316016665344051	0.0	1.0711988644040389	-0.8314391150607557	0.0	1.0555742073411787	-0.8022825446038889	0.0	0.9282084055644583	-0.45820418687349573	0.0	0.8585277039447267	-0.4780481338967508	0.0	0.9069193114511271	-0.45693965502607053	0.0	0.930177042954936	-0.4459332949602474	0.0	0.9421544045602808	-0.3763908382430019	0.0	0.951447312419079	-0.3078611150049982	0.0	0.9424288970651241	-0.45393774074330245	0.0	0.9669403149360181	-0.4119156867439692	0.0	0.9642631091502742	-0.3499049629066321	0.0
14	0.47115384615384615	1.0819659273362403	-0.5099095025321227	0.0	1.0695547143127242	-0.504235846695814	0.0	1.09771345484939	-0.6233412848778449	0.0	1.06725536692724	-0.7409535025283936	0.0	1.068916173284286	-0.7858106537920586	0.0	1.0668744624164308	-0.785137906100568	0.0	1.058320441209728	-0.7521510314382696	0.0	1.0798445521269555	-0.5078063412883761	0.0	1.1275750863585186	-0.6231790124145292	0.0	1.0838506287299772	-0.7418778769787943	0.0	1.0852655649090512	-0.7797723873679178	0.0	1.086914703045799	-0.7827014649011915	0.0	1.0785501296067426	-0.748104970589675	0.0	0.9129261297129653	-0.44895719179308596	0.0	0.8465193660895957	-0.492209693800123	0.0	0.8897446882989535	-0.46597122736381635	0.0	0.9163499871305463	-0.43320049149393147	0.0	0.9171728547938266	-0.35880502647146456	0.0	0.9120388518708635	-0.28995866610948007	0.0	0.9252429484395059	-0.4417209002182649	0.0	0.9376611358025035	-0.3906725218223199	0.0	0.925241456760582	-0.3295546473545826	0.0
15	0.5048076923076923	1.0902182168854153	-0.47393642829203536	0.0	1.0776785391855555	-0.46626785698063744	0.0	1.1164499625645234	-0.5655649059163667	0.0	1.09500756946385	-0.680437071855789	0.0	1.0976548927242415	-0.7214335279355463	0.0	1.0981726905567897	-0.7219162359649802	0.0	1.088742345391348	-0.6906776109625576	0.0	1.0834288077873027	-0.47334268311313615	0.0	1.140019052912145	-0.5684699949373399	0.0	1.1080109822369826	-0.6840421964660096	0.0	1.110643406761824	-0.7166102672641727	0.0	1.112262855058226	-0.7226686901486935	0.0	1.1056152344719041	-0.6888610576313039	0.0	0.9020166018044913	-0.4447485409890599	0.0	0.841099743988935	-0.5053115726864028	0.0	0.8780881798935586	-0.4762809310304455	0.0	0.9062053055185406	-0.4266804176703348	0.0	0.900498390058673	-0.3515534214155478	0.0	0.882726379129692	-0.28401811140308825	0.0	0.9143874425480822	-0.4363223777107317	0.0	0.919763622250992	-0.37981448912271554	0.0	0.9005073914333327	-0.3226110047685743	0.0
16	0.5384615384615384	1.0903341525439616	-0.44140724427865463	0.0	1.078872318379439	-0.43260298113695395	0.0	1.1322940422805228	-0.499389324957916	0.0	1.1264741551221178	-0.6126429425705933	0.0	1.136527007713538	-0.6447349888613698	0.0	1.138446967205564	-0.6468424315209752	0.0	1.1231327128681619	-0.623297331600672	0.0	1.0814303477183937	-0.4431277417694444	0.0	1.1505339489880615	-0.5059742521524924	0.0	1.1360359161151679	-0.6174245754826458	0.0	1.1465418600020512	-0.6398307983184786	0.0	1.1472170638595092	-0.6483506922252718	0.0	1.1363091591414436	-0.6233597233387183	0.0	0.8962074986562839	-0.44550605510641506	0.0	0.8407393776245291	-0.5161986839529944	0.0	0.8708447401339845	-0.4848267375815498	0.0	0.899841934278364	-0.42500824423230477	0.0	0.8930282959892797	-0.35111698288203463	0.0	0.8660136558295461	-0.28511941028212145	0.0	0.9111977398373134	-0.4378965172751814	0.0	0.9173042607928865	-0.38137059217879754	0.0	0.8951073186484646	-0.3311449558858398	0.0
17	0.5721153846153846	1.0832702109266883	-0.41333048542925876	0.0	1.0731885567854478	-0.4037749738134718	0.0	1.141065049651371	-0.4274326991398903	0.0	1.1569640541522201	-0.5364082880939501	0.0	1.1788222945736926	-0.555314837573972	0.0	1.1805466577956893	-0.559015044061313	0.0	1.1569296199847652	-0.5487675813425837	0.0	1.0748612710905967	-0.418206469075045	0.0	1.1572951124479354	-0.43828940999255267	0.0	1.1651866159394317	-0.5415081912220141	0.0	1.1866377027747566	-0.5487364619705416	0.0	1.1863617056385345	-0.558798102515732	0.0	1.1684209179144514	-0.5501734150672695	0.0	0.8954599327533955	-0.45034899863063965	0.0	0.8439323541015241	-0.5249703609121711	0.0	0.8669909847676013	-0.49042754071630235	0.0	0.8971919143403039	-0.4265427995652885	0.0	0.8942117769498404	-0.35429349328330334	0.0	0.8624755407053858	-0.28868727435998465	0.0	0.9151185279459272	-0.4449319716760405	0.0	0.929518743482533	-0.39322357703891014	0.0	0.9088813149707086	-0.35185598272398194	0.0
18	0.6057692307692307	1.0744201971343061	-0.3913194646233421	0.0	1.0649510723607885	-0.3808887287978133	0.0	1.138830859302161	-0.35783372394376445	0.0	1.1799912884461043	-0.4532039934550636	0.0	1.213855643094664	-0.45587959079262613	0.0	1.2135349686745875	-0.4606630909521936	0.0	1.1840326355968047	-0.467258879082687	0.0	1.068206044910818	-0.39987127229817626	0.0	1.1569379228658296	-0.37323680285039973	0.0	1.1902616079011255	-0.45964490008595554	0.0	1.2198642663975041	-0.44718770409784214	0.0	1.2196365346148288	-0.4581497424285356	0.0	1.1971866255997903	-0.4700045565219342	0.0	0.8994468273584688	-0.4579877956281544	0.0	0.8499512087067949	-0.532586612121448	0.0	0.8665630271458559	-0.49412169884326335	0.0	0.89849930374142	-0.43021852205164074	0.0	0.902491197691672	-0.3587980760473562	0.0	0.8708117042015037	-0.2916111614798936	0.0	0.9242614086096788	-0.45487234235569723	0.0	0.9506639760338566	-0.40936424606679234	0.0	0.9355532160699213	-0.3760102556644006	0.0
19	0.6394230769230769	1.0690005522409172	-0.3756914837587468	0.0	1.0590864887243903	-0.3645328189855958	0.0	1.1246819394499907	-0.2999888748941129	0.0	1.1886162864780465	-0.3676858603039814	0.0	1.231053574905015	-0.35368769575460884	0.0	1.2263135596801527	-0.35842441748267195	0.0	1.1972772023748472	-0.3818689911205634	0.0	1.0660290893909699	-0.3875680207618295	0.0	1.147625932769659	-0.31910857755239863	0.0	1.2048631234638658	-0.3780028370893938	0.0	1.2349462867686702	-0.3445261090996612	0.0	1.2365721610685037	-0.3560025220339273	0.0	1.215680722206356	-0.3866690134526262	0.0	0.9078087271635784	-0.46710661575118445	0.0	0.8589151724057302	-0.5401364110285495	0.0	0.8701848968052424	-0.49779791052607675	0.0	0.904000143887957	-0.4354770857208634	0.0	0.9156650466508407	-0.3630845158568803	0.0	0.8881938101336311	-0.2925475841401502	0.0	0.9367433896525963	-0.4652435059034774	0.0	0.9730324585691427	-0.4232954407237878	0.0	0.9657241235272157	-0.3938013612110063	0.0
20	0.673076923076923	1.0688058401892055	-0.3652932346763206	0.0	1.057810743035306	-0.35422799050717774	0.0	1.1013702198517479	-0.2602502106487005	0.0	1.1775002541722959	-0.28743249564366735	0.0	1.223937098328411	-0.26036550655155477	0.0	1.211698722473396	-0.26344144011828324	0.0	1.1901539334004279	-0.2994634631025944	0.0	1.0697404111631912	-0.379268713199333	0.0	1.1301900610959712	-0.2806552903267882	0.0	1.203068998680354	-0.3039769810050739	0.0	1.2245688438801463	-0.25366803817243677	0.0	1.2301924235069805	-0.26492187912402543	0.0	1.2165458317124311	-0.30697531629480773	0.0	0.920228425989533	-0.4765930907310216	0.0	0.8715039504055054	-0.5481615146942929	0.0	0.8783846792645887	-0.5028296608656445	0.0	0.9134722770536271	-0.44184957222843413	0.0	0.9313768268518997	-0.3662304044712865	0.0	0.9107004730877174	-0.2916965434143325	0.0	0.9517618648577162	-0.474441832918703	0.0	0.9919227331297045	-0.43188092463690614	0.0	0.9921591660632663	-0.40045423106910266	0.0
21	0.7067307692307692	1.0729838465343247	-0.35859674043159545	0.0	1.0608619997748394	-0.34886883776026106	0.0	1.073509102075646	-0.24073664440737969	0.0	1.1452837307869186	-0.22231662840911987	0.0	1.1917801549622167	-0.1895062532085243	0.0	1.16923721199805	-0.18959545388441829	0.0	1.159877274600694	-0.23026925118290084	0.0	1.0779133038907858	-0.37308539597332124	0.0	1.1070516214760837	-0.25885501046430287	0.0	1.1812611248267244	-0.24524118488343033	0.0	1.1871941666110568	-0.18704488604730354	0.0	1.1985118848925123	-0.1965718368442777	0.0	1.1949029688450292	-0.23982915551126013	0.0	0.9364988196029844	-0.4856760130303456	0.0	0.8886906841477709	-0.5565682173306759	0.0	0.8915179752209436	-0.5096370247939425	0.0	0.9263375588322764	-0.448965457226679	0.0	0.9475119569723585	-0.3681708990567076	0.0	0.9339324240017342	-0.29052340594851805	0.0	0.9695256831941494	-0.4817875853130128	0.0	1.007761296412797	-0.43592751630146254	0.0	1.0127127611310225	-0.39831446303277374	0.0
22	0.7403846153846153	1.0795562077185001	-0.3542608929236023	0.0	1.0666233729178358	-0.34711130604195245	0.0	1.0454809757800982	-0.23998388337459584	0.0	1.0959255783231991	-0.18181838760164437	0.0	1.1380994827557975	-0.15189572298753265	0.0	1.105509635922371	-0.14880940263231662	0.0	1.1095681498883774	-0.18468432802399193	0.0	1.087870998044118	-0.36786316841702754	0.0	1.0812011018564962	-0.25242353433397774	0.0	1.1400018569456367	-0.2082773535973414	0.0	1.1274492964527947	-0.15277694609248973	0.0	1.1444871721826453	-0.15876091896077182	0.0	1.1510573481330517	-0.19409165755157673	0.0	0.9565115950307072	-0.493949606384699	0.0	0.911588714985631	-0.5650951270552304	0.0	0.9099165900620505	-0.5181132008733126	0.0	0.9421462956775529	-0.45681903321491163	0.0	0.9622948027982281	-0.3698635134642531	0.0	0.9538120111926985	-0.29143254749566794	0.0	0.9904733928800803	-0.4872092278596054	0.0	1.0235588222202188	-0.43755546631774106	0.0	1.0291832910947192	-0.39329518347343007	0.0
23	0.7740384615384615	1.0859940475096617	-0.35120526820469045	0.0	1.0726623912847912	-0.34754787749975513	0.0	1.020324945873706	-0.25437156305279546	0.0	1.0375745812787964	-0.17112026122908328	0.0	1.0685908546006728	-0.15148148654876006	0.0	1.0317343690555782	-0.14627670691489772	0.0	1.047492238222075	-0.16883393145699707	0.0	1.0967341831014699	-0.36306326758079227	0.0	1.055531543614298	-0.25917734263476117	0.0	1.084754714596221	-0.19667934203178608	0.0	1.0553908790833402	-0.1535800530540397	0.0	1.0755112469583705	-0.15477092636459583	0.0	1.0910944443406592	-0.1758724655152278	0.0	0.9800821007250757	-0.5012372363970878	0.0	0.9411749911506636	-0.5735251539188894	0.0	0.933950668008627	-0.5281060972085817	0.0	0.960816965636776	-0.46566220707644823	0.0	0.9743940059478648	-0.37316281553210506	0.0	0.9672829778646482	-0.29726374279041273	0.0	1.0146218126786966	-0.4909485412749683	0.0	1.0414549624701557	-0.43784736740094304	0.0	1.044406264455076	-0.3903041679674538	0.0
